# xmcd CD database file
#
# Track frame offsets:
#	150
#	10460
#	21855
#	34140
#	44705
#	56883
#	80765
#	95764
#	109995
#	123724
#	134776
#	147487
#	161102
#	173372
#	187564
#	205754
#	224876
#	243915
#	263710
#	283988
#	304572
#	330618
#
# Disc length: 4633 seconds
#
# Revision: 1
# Processed by: cddbd v1.5.1PL0 Copyright (c) Steve Scherf et al.
# Submitted via: CDex 1.51
#
DISCID=59121716
DTITLE=Art Pepper - Young Art (disk 1)
DYEAR=1950
DGENRE=Jazz
TTITLE0=Harlem Folk Dance
TTITLE1=How High The Moon
TTITLE2=The Continental
TTITLE3=Prelude To A Nightmare
TTITLE4=Jolly Rogers
TTITLE5=Art Pepper
TTITLE6=Viva Prado
TTITLE7=Dynaflow
TTITLE8=Popo
TTITLE9=Didi
TTITLE10=Four Mothers
TTITLE11=Over The Rainbow
TTITLE12=Apropos
TTITLE13=Sam And The Lady
TTITLE14=How High The Moon
TTITLE15=Suzy The Poodle
TTITLE16=Easy Steppin'
TTITLE17=Tickle Toe
TTITLE18=Patty Cake
TTITLE19=Move
TTITLE20=All The Things You Are
TTITLE21=Don't Blame Me
EXTD=YEAR: 1950
EXTT0=
EXTT1=
EXTT2=
EXTT3=
EXTT4=
EXTT5=
EXTT6=
EXTT7=
EXTT8=
EXTT9=
EXTT10=
EXTT11=
EXTT12=
EXTT13=
EXTT14=
EXTT15=
EXTT16=
EXTT17=
EXTT18=
EXTT19=
EXTT20=
EXTT21=
PLAYORDER=
